<svg width="228" height="114" viewBox="0 0 228 114" fill="none" xmlns="http://www.w3.org/2000/svg">
<g clip-path="url(#clip0_986_16305)">
<g clip-path="url(#clip1_986_16305)">
<rect width="226" height="113" transform="translate(1.00001 1)" fill="black" fill-opacity="0.9"/>
<rect x="1.00001" y="1" width="226" height="113" fill="#3485FF"/>
<path d="M101.588 57.4999C101.567 59.5386 101.954 61.561 102.726 63.4486C103.499 65.3362 104.641 67.0511 106.085 68.4928C107.53 69.9345 109.249 71.074 111.14 71.8446C113.032 72.6152 115.059 73.0014 117.102 72.9806L141.924 72.9806C146.038 72.9806 149.984 71.3496 152.893 68.4464C155.803 65.5432 157.437 61.6056 157.437 57.4999C157.437 53.3941 155.803 49.4565 152.893 46.5533C149.984 43.6501 146.038 42.0191 141.924 42.0191L138.821 42.0191" stroke="white" stroke-width="5.5" stroke-linecap="round" stroke-linejoin="round"/>
<path d="M126.411 57.5001C126.432 55.4614 126.045 53.439 125.273 51.5514C124.501 49.6638 123.359 47.9489 121.914 46.5072C120.469 45.0655 118.751 43.926 116.859 43.1554C114.968 42.3848 112.941 41.9986 110.898 42.0194L86.0758 42.0194C81.9613 42.0194 78.0153 43.6504 75.1059 46.5536C72.1965 49.4568 70.5621 53.3944 70.5621 57.5001C70.5621 61.6059 72.1965 65.5434 75.1059 68.4467C78.0153 71.3499 81.9613 72.9809 86.0758 72.9809L89.1785 72.9809" stroke="white" stroke-width="5.5" stroke-linecap="round" stroke-linejoin="round"/>
</g>
</g>
<defs>
<clipPath id="clip0_986_16305">
<path d="M7.62939e-06 10.5C7.62939e-06 4.70102 4.70102 0 10.5 0H217.5C223.299 0 228 4.70101 228 10.5V114.001H7.62939e-06V10.5Z" fill="white"/>
</clipPath>
<clipPath id="clip1_986_16305">
<rect width="226" height="113" fill="white" transform="translate(1.00001 1)"/>
</clipPath>
</defs>
</svg>
